<svg xmlns="http://www.w3.org/2000/svg" viewBox="0 0 1847.77 576.98"><defs><style>.cls-1,.cls-2{fill:#fff;}.cls-2{stroke:#fff;stroke-linecap:round;stroke-miterlimit:10;stroke-width:10.28px;}</style></defs><g id="Layer_2" data-name="Layer 2"><g id="Layer_1-2" data-name="Layer 1"><path class="cls-1" d="M1185.69,255.2q-7.45,15-14.91,29.92c-6.49,13.09-13,26.18-19.39,39.32a2.84,2.84,0,0,1-3.07,1.92c-4.91-.1-9.83-.11-14.74,0a2.62,2.62,0,0,1-2.82-1.8c-4.89-10-9.9-19.89-14.88-29.81-4.73-9.44-9.51-18.86-14.21-28.33-1.87-3.76-3.56-7.61-5.91-11.41v2.7c0,26.22,0,52.44.07,78.66,0,2.4-.68,2.85-2.91,2.8-7-.16-13.91-.12-20.86,0-1.74,0-2.13-.46-2.12-2.15q.07-61.15,0-122.3c0-1.81.44-2.34,2.29-2.32,9.27.09,18.55.07,27.82,0a2.53,2.53,0,0,1,2.68,1.68q11.25,22.53,22.69,45c5.15,10.15,10.38,20.26,15.61,30.45,1-.18,1.07-1.26,1.43-2q13.08-25.93,26.08-51.91,5.24-10.47,10.3-21a3.2,3.2,0,0,1,3.42-2.22q13.48.23,27,0c2.39,0,3.09.48,3.08,3q-.15,49.76-.07,99.5c0,7.32,0,14.64,0,22,0,1.77-.38,2.36-2.27,2.33-7-.12-14.1-.14-21.14,0-2.08,0-2.57-.49-2.56-2.57.08-26.12,0-52.25,0-78.37v-2.91Z"/><path class="cls-1" d="M981.41,210.39c20.06.29,37.91,6.87,51.84,22.27a61,61,0,0,1,15.19,31.83c2.35,14.48.51,28.25-6.26,41.21-9.26,17.72-24.11,28.42-43.29,33.4a75.66,75.66,0,0,1-23.38,2.11,67.89,67.89,0,0,1-31.33-9.78,59.32,59.32,0,0,1-13.67-10.9,65.12,65.12,0,0,1-17.2-51.66,62.43,62.43,0,0,1,14.35-34.61,64.34,64.34,0,0,1,27-19.15C963.09,211.8,972,210.57,981.41,210.39Zm.25,25.1c-1.93.16-3.9.16-5.8.5a40.23,40.23,0,0,0-30.32,55c9.27,22.86,35.93,32.24,56,19.17,15-9.78,20.27-24.41,17.81-41.85A38.61,38.61,0,0,0,981.66,235.49Z"/><path class="cls-1" d="M928.23,391.35c16.8-.09,32.07,4.41,45.33,15a61,61,0,0,1,22.35,36.39c3.08,15.32,1.46,30.3-6.06,44.22-9.8,18.15-25.19,28.89-45.2,33.41a80.72,80.72,0,0,1-22.44,1.52,63,63,0,0,1-16.77-3.54,68.49,68.49,0,0,1-22.31-12.73c-8.8-7.45-14.7-16.62-18.66-27.27-3.26-8.78-3.5-17.85-3.23-27.06a57.47,57.47,0,0,1,6.15-23.77,63.16,63.16,0,0,1,11-15.65A66,66,0,0,1,902.28,396a75,75,0,0,1,16.08-4A65.22,65.22,0,0,1,928.23,391.35Zm39.54,64.71a38.84,38.84,0,0,0-.6-7.38,38.21,38.21,0,0,0-57.85-26.52c-14.44,8.87-21.45,26-17.82,43.54A39.34,39.34,0,0,0,938,495.93C955.29,492.16,967.77,475.72,967.77,456.06Z"/><path class="cls-1" d="M1847.77,339.11c-10.26,0-20.45,0-30.64,0-1.55,0-2.13-.62-2.84-1.91-4.26-7.88-8.7-15.66-13-23.5-1.7-3.07-3.32-6.18-4.94-9.29a2.44,2.44,0,0,0-2.49-1.51q-12.52.12-25,0c-1.7,0-2.16.39-2.14,2.12.08,10.56,0,21.13.09,31.68,0,2-.53,2.45-2.46,2.43q-12.09-.17-24.2,0c-1.79,0-2.28-.42-2.28-2.25q.09-61,0-122c0-2.2.68-2.52,2.65-2.51,18.45.07,36.9-.21,55.35.13,12.16.23,23.93,2.53,34,10.21,8.2,6.26,12.71,14.55,14.39,24.65a55.23,55.23,0,0,1-1.49,25.34,37.94,37.94,0,0,1-19.79,23.77c-1.52.78-1.41,1.2-.58,2.48q12,18.43,23.9,37A7.79,7.79,0,0,1,1847.77,339.11Zm-81.09-81.53c0,6.3.06,12.6,0,18.9,0,1.81.28,2.57,2.36,2.54,8.53-.13,17.06.06,25.58-.09,5.72-.1,11.31-1.16,15.89-4.89,7.6-6.17,8.29-14.49,6.38-23.22-1.72-7.79-7.9-12.83-16.76-14-10.33-1.33-20.74-.26-31.1-.64-2.06-.08-2.39.63-2.35,2.48C1766.75,245,1766.68,251.29,1766.68,257.58Z"/><path class="cls-1" d="M1615.13,275.73c0-20.19,0-40.39-.05-60.58,0-2.16.5-2.78,2.73-2.77q45.75.12,91.51,0c1.88,0,2.55.38,2.5,2.4-.13,6.39-.15,12.78,0,19.17.05,2.09-.7,2.34-2.51,2.33-20.86-.06-41.73,0-62.59-.09-2.25,0-3,.43-2.91,2.82.18,7.13.22,14.27,0,21.4-.1,2.83.84,3.24,3.39,3.22,18.17-.11,36.34,0,54.52-.13,2.79,0,3.34.79,3.26,3.39-.21,5.92-.21,11.86,0,17.78.09,2.48-.79,2.78-3,2.77-18.45-.08-36.9,0-55.35-.11-2.36,0-2.89.62-2.84,2.9q.23,11.25,0,22.51c0,2.1.52,2.6,2.6,2.59,21.51-.08,43,0,64.53-.1,2.29,0,3,.54,2.91,2.87-.17,6.29-.12,12.6,0,18.9,0,1.74-.48,2.14-2.17,2.14q-47.14-.07-94.29,0c-2.16,0-2.31-.83-2.31-2.58Q1615.17,306.17,1615.13,275.73Z"/><path class="cls-1" d="M1200.37,456.63c0-20.2,0-40.41,0-60.61,0-2.17.53-2.76,2.74-2.76q45.76.12,91.54,0c2.11,0,2.61.54,2.56,2.61-.14,6.11-.16,12.23,0,18.34.06,2.25-.42,2.91-2.81,2.9-20.77-.11-41.55,0-62.32-.13-2.32,0-2.93.54-2.88,2.87.16,7.41.13,14.82,0,22.23,0,1.94.47,2.44,2.42,2.43,18.55-.08,37.1,0,55.65-.1,2.23,0,3,.44,3,2.85q-.29,9,0,18.07c.06,2.28-.49,2.93-2.84,2.92-18.46-.1-36.92,0-55.37-.12-2.36,0-2.89.62-2.85,2.9.16,7.59.13,15.19,0,22.79,0,1.95.53,2.4,2.45,2.4,21.43-.08,42.85,0,64.27-.11,2.49,0,3.33.54,3.24,3.16-.21,6.2-.12,12.42,0,18.63,0,1.54-.37,2-2,2q-47.29-.06-94.6,0c-2,0-2.17-.83-2.16-2.44Q1200.41,487.06,1200.37,456.63Z"/><path class="cls-1" d="M1364.35,255c0-13.34.05-26.69-.06-40,0-2.11.55-2.61,2.62-2.58,7.79.13,15.58.15,23.37,0,2.29,0,2.69.71,2.68,2.79q-.11,35.31,0,70.61c0,6.93,1,13.67,5.22,19.49,5.46,7.47,13,10.55,22.08,10.78,8.35.21,15.6-2.36,21.24-8.61a24.11,24.11,0,0,0,6.42-16.65c0-1.85.63-3.56.63-5.42-.08-23.45,0-46.89-.1-70.33,0-2,.3-2.7,2.52-2.66,8,.16,16,.13,23.92,0,1.89,0,2.31.58,2.31,2.34-.05,24.93.21,49.86-.13,74.78-.2,14.9-5.07,28.16-16.54,38.4-6.91,6.18-15.12,9.73-24,11.72a71.72,71.72,0,0,1-21.82,1.56c-11.21-1-21.91-4-31.16-11a47.76,47.76,0,0,1-14.86-19.26,54.47,54.47,0,0,1-4.27-22.57C1364.38,277.23,1364.35,266.11,1364.35,255Z"/><path class="cls-1" d="M798.1,521.57a86.54,86.54,0,0,1-35.36-7.33,90.35,90.35,0,0,1-17.83-10.54c-1.71-1.24-2.68-2.42-1.3-4.95,3.39-6.2,6.34-12.65,9.34-19.06.79-1.68,1.31-1.56,2.6-.47a80.46,80.46,0,0,0,27.63,15.19c8.18,2.56,16.43,3.84,24.84,1.47,3.92-1.1,7.36-3.37,8.84-7.34,2-5.33.08-10.5-4.75-13.75-5.17-3.48-11.17-5-17-6.81-10.8-3.32-22-5.59-31.53-12.17-7-4.88-11.47-11.4-12.83-20a38.59,38.59,0,0,1,.65-16.95,33,33,0,0,1,11.23-16.89c8.95-7.27,19.33-9.72,30.46-10.62,15.33-1.24,29.8,1.73,43.77,7.82a91.3,91.3,0,0,1,9.39,4.95c1.27.73,1.19,1.22.69,2.29-3.22,6.9-6.45,13.8-9.56,20.75-.75,1.7-1.66,1.63-2.93.84A86.7,86.7,0,0,0,805,416.56a37.19,37.19,0,0,0-15.51-.12c-4.76,1.08-8.3,4.66-8.53,9.47a10.7,10.7,0,0,0,5.72,10.16c6.13,3.55,12.87,5.53,19.58,7.59,7.79,2.4,15.65,4.67,22.94,8.37,8.81,4.46,15.43,10.89,17.91,20.9,4.71,19-3.71,36.52-22.76,44.11A65.65,65.65,0,0,1,798.1,521.57Z"/><path class="cls-1" d="M1241.92,275.46c0-20.1,0-40.2,0-60.31,0-2.1.43-2.79,2.69-2.77,18,.1,36-.21,54,.14,12.38.24,24.23,2.81,34.2,11a35.81,35.81,0,0,1,12.59,21.57c2.16,11.23,1.72,22.46-3.13,33-5.93,12.95-16.6,20-30.16,23.17-8,1.88-16,1.67-24.13,1.66-5,0-10,.1-15-.05-1.89-.05-2.25.58-2.24,2.32.08,10.38,0,20.75.09,31.13,0,2-.31,2.86-2.65,2.81-7.88-.18-15.76-.15-23.64,0-2.09,0-2.58-.49-2.57-2.57C1242,316.22,1241.92,295.84,1241.92,275.46Zm28.76-18c0,6.39.06,12.78,0,19.16,0,1.77.38,2.4,2.29,2.37,7.69-.11,15.38.07,23.07-.08,5.52-.11,10.88-1.16,15.48-4.48,6.56-4.72,9.31-14,7-23.28-1.93-7.87-7.87-13.06-16.84-14.3-9.86-1.36-19.8-.32-29.7-.63-1.77-.06-1.28,1.18-1.28,2.07C1270.67,244.7,1270.68,251.09,1270.68,257.48Z"/><path class="cls-1" d="M1005.58,456c-.68-11.38,2.46-22.25,8.09-32.16A61,61,0,0,1,1043,397.47a73,73,0,0,1,37.08-5.62c13.29,1.35,25,6.35,35.64,14.1,2.16,1.57,4,3.52,6.09,5.23,1,.87,1.16,1.44.17,2.63-5,6.07-10,12.24-14.88,18.43-1,1.21-1.47.6-2.09-.18a44.89,44.89,0,0,0-28.11-15.21c-13.07-1.54-23.6,3-32.25,12.44a36.67,36.67,0,0,0-9.17,19.76c-1.68,11,.33,21.14,6.61,30.36,10.88,16,30.88,20.82,49,12a64.83,64.83,0,0,0,14.22-9.74c1.15-1,1.44-.51,2.08.19,4.95,5.36,9.87,10.74,14.87,16.05,1.17,1.24.45,1.87-.4,2.71a77.55,77.55,0,0,1-22.1,15.15,68.73,68.73,0,0,1-35.22,6.19,64.42,64.42,0,0,1-55.75-43.66A59.6,59.6,0,0,1,1005.58,456Z"/><path class="cls-1" d="M855.88,210.35c16.94.51,32.72,6.08,46.12,17.85,3.7,3.25,3.64,3.33.3,7.48-4,4.94-8.06,9.8-11.94,14.81-1.34,1.73-2.12,1.32-3.33,0a46.19,46.19,0,0,0-19.35-12.75c-22.62-7.79-44.94,6.81-49.2,28.55-2.93,15,.77,27.95,11.76,38.58a36.14,36.14,0,0,0,21.21,9.86c11.64,1.45,21.38-2.88,30.52-9.29a29.73,29.73,0,0,0,5.89-4.71c.92-1.07,1.6-.41,2.28.33,4.9,5.38,9.79,10.78,14.73,16.12.74.8,1,1.19.06,2.09-11.3,11-24.58,18.24-40.21,21a61.87,61.87,0,0,1-14.48,1,67.78,67.78,0,0,1-30.64-9.08A61.53,61.53,0,0,1,806.32,322a65.61,65.61,0,0,1-16.63-30.7,66.86,66.86,0,0,1-1.64-21.15,63.55,63.55,0,0,1,14-35.45c9.86-12.16,22.69-19.28,37.78-22.67C844.85,210.87,850,210.62,855.88,210.35Z"/><path class="cls-1" d="M1541,393.32c-3.72,7-7.26,13.76-10.86,20.48-4.81,9-9.67,17.89-14.51,26.83q-9.6,17.75-19.21,35.47a12,12,0,0,0-1.49,6c.08,11.77,0,23.54.08,35.3,0,1.86-.34,2.54-2.38,2.51q-12.09-.18-24.2,0c-1.87,0-2.27-.55-2.26-2.32.08-11.85,0-23.72.06-35.58a7.16,7.16,0,0,0-.88-3.62c-5.24-9.5-10.42-19-15.63-28.54-6.46-11.78-13-23.54-19.37-35.35-3.47-6.38-6.76-12.87-10.23-19.25-.93-1.72-.42-2,1.26-2q12.66.06,25.32,0a2.36,2.36,0,0,1,2.35,1.45q14.89,26.21,29.86,52.39c.44.77.7,2,1.66,1.86.54-.06,1-1.14,1.44-1.84q6.38-11.37,12.7-22.76c4.11-7.46,8.13-15,12.24-22.43,1.38-2.5,3-4.9,4.3-7.42a1.94,1.94,0,0,1,1.91-1.23Z"/><path class="cls-1" d="M1545,212.43c16.87,0,33.75,0,50.62-.05,2.07,0,2.64.47,2.6,2.57-.16,6.48-.14,13,0,19.45,0,1.89-.37,2.48-2.38,2.46-10.94-.11-21.88-.05-32.82-.05-3.71,0-3.71,0-3.71,3.57,0,31.77,0,63.54.08,95.32,0,3-.86,3.55-3.63,3.48-7.51-.2-15-.16-22.53,0-2.18,0-2.73-.55-2.73-2.73.08-32.23,0-64.47.11-96.7,0-2.42-.54-3-3-3-11.12.15-22.25,0-33.37.11-1.78,0-2.36-.41-2.32-2.27q.18-9.87,0-19.73c0-1.95.51-2.47,2.46-2.46C1511.26,212.47,1528.13,212.43,1545,212.43Z"/><path class="cls-1" d="M1364,393.32c16.78,0,33.57,0,50.35-.05,1.91,0,2.5.43,2.46,2.39-.13,6.57-.12,13.16,0,19.73,0,1.87-.54,2.26-2.31,2.25-11.31-.08-22.63,0-33.94-.1-2.28,0-2.71.69-2.7,2.8.06,32.24,0,64.48.1,96.73,0,2.25-.44,2.95-2.82,2.9-7.6-.18-15.21-.16-22.81,0-2.32,0-3.08-.38-3.07-2.94.11-32.06,0-64.12.14-96.18,0-2.69-.65-3.35-3.33-3.31-10.94.17-21.88,0-32.83.13-2.17,0-2.58-.63-2.54-2.64.13-6.39.15-12.78,0-19.17,0-2.16.65-2.59,2.66-2.58C1330.23,393.35,1347.11,393.32,1364,393.32Z"/><path class="cls-1" d="M889.9,120.5c-.17-13.42.1-26.85-.61-40.26a62,62,0,0,0-.65-6.23c-.37-2.4,1-2.45,2.78-2.45,12.33,0,24.66,0,37,0,6.39,0,12.79.07,19.18,0,2,0,2.51.79,2.18,2.46-1,4.81-.18,9.71-.91,14.55-.29,1.87-.66,2.55-2.6,2.53-8.71-.08-17.43,0-26.14-.08-1.91,0-2.55.44-2.48,2.43.16,4.07.12,8.15,0,12.22,0,1.72.54,2.33,2.24,2.18,8.12-.69,16.27-.51,24.41-.61,2.08,0,3,.35,2.83,2.69-.38,4.4-.48,8.83-.7,13.24-.11,2.2-1.06,3.13-3.48,3.08-7.6-.17-15.2,0-22.8-.1-1.74,0-2.39.33-2.33,2.23.15,4.63.13,9.26,0,13.89-.05,1.85.54,2.47,2.36,2.28,9.67-1,19.41-.3,29.09-1.12,2.22-.19,3,.55,2.81,2.78C951.55,151.58,951,157,951,162.4c0,1.9-1.32,2.13-2.82,2.13-7.14,0-14.28,0-21.42,0-10.83,0-21.66-.09-32.49.46-.74,0-1.49-.07-2.22,0-2.28.31-2.87-.73-2.75-2.88C890,148.27,889.74,134.38,889.9,120.5Z"/><path class="cls-1" d="M966.57,121.21c-.07-13.7.22-27.41-.54-41.1-.11-2.1-.68-4.11-.66-6.25,0-1.94.75-2.31,2.43-2.3,5.93.06,11.87,0,17.8,0,12.71,0,25.41,0,38.11,0,2.5,0,3,.5,2.6,3.18-.6,4.44-.31,9-.67,13.51-.17,2.14-.62,2.88-2.85,2.85-8.72-.11-17.43,0-26.15-.08-1.79,0-2.36.41-2.29,2.26.14,4.16.15,8.34,0,12.5-.06,1.81.54,2.2,2.19,2.07,8.21-.68,16.45-.5,24.69-.64,2.31,0,3,.72,2.67,2.83-.65,4.63-.38,9.34-1,14-.27,2-1.08,2.18-2.68,2.17-7.78,0-15.57,0-23.36-.06-1.64,0-2.25.29-2.19,2.09q.21,6.94,0,13.89c-.06,2,.57,2.62,2.51,2.42,9.76-1,19.59-.31,29.37-1.14,1.8-.15,2.58.54,2.36,2.39-.64,5.47-1,11-1.11,16.48,0,2.1-1.36,2.28-3,2.27-6.77,0-13.53,0-20.3,0-11.3,0-22.6-.07-33.89.47-4.59.22-4.7.2-4.49-4.34C966.72,147.51,966.51,134.36,966.57,121.21Z"/><path class="cls-1" d="M1043.37,130.2c0-18.62.21-34.18-.59-49.73-.12-2.26-.74-4.5-.52-6.8.13-1.36.52-2.12,2.17-2.12q28.52.08,57,0c1.54,0,1.76.39,1.62,2.13-.35,4.68-.45,9.38-.64,14.08-.1,2.49-.61,3.37-3.26,3.32-8.53-.17-17.06,0-25.59-.11-1.91,0-2.54.39-2.46,2.39.17,4.16.13,8.34,0,12.51-.05,1.62.48,2.06,2,1.93,8-.65,16.08-.59,24.13-.57,3.48,0,3.8.07,3.31,3.59-.61,4.29-.29,8.61-.92,12.91-.32,2.27-1.24,2.44-3,2.43-7.6,0-15.21,0-22.81-.07-1.92,0-2.51.43-2.44,2.41.16,4.63.11,9.26,0,13.89,0,1.75.57,2.28,2.26,2.11,9.76-1,19.59-.31,29.36-1.13,2.13-.18,2.84.58,2.57,2.69a108.89,108.89,0,0,0-1,15.09c0,2.7-1.11,3.4-3.65,3.39-14.46-.06-28.92,0-43.39.07-4.16,0-8.32.16-12.47.39-1.87.1-2.33-.53-2.27-2.35C1043.24,150.83,1043.48,139,1043.37,130.2Z"/><path class="cls-1" d="M1170.79,456.69c0,20.18,0,40.37,0,60.55,0,2.15-.49,2.76-2.69,2.72-8-.15-15.94-.11-23.91,0-1.77,0-2.34-.38-2.34-2.27q.09-61,0-121.94c0-2,.52-2.49,2.46-2.46,8,.1,15.94.12,23.91,0,2.11,0,2.58.53,2.57,2.6C1170.76,416.13,1170.79,436.41,1170.79,456.69Z"/><path class="cls-1" d="M869.1,118.13c0,14.71.47,29.42.93,44.13.05,1.58-.26,2.32-2.1,2.31-8.61-.06-17.24-.28-25.83.47-2.06.18-2-.88-2-2.25.13-14.07.14-28.15.41-42.22.23-12.22.15-24.43-.38-36.63-.14-3.38-.54-6.74-.43-10.15,0-1.78.67-2.16,2.29-2.14,8.33.1,16.68.08,25-.48,2.35-.16,2.83.71,2.73,2.82-.64,13-.68,25.9-.67,38.86Z"/><path class="cls-1" d="M0,288.26c.49-51.8,17.57-97.62,50.79-137.21,37.44-44.64,85.52-71.75,142.28-83.9a263.51,263.51,0,0,1,50.18-5.6c43.19-.84,84.4,7.71,123,27,55.58,27.81,96.14,69.75,118.11,128.51a197.57,197.57,0,0,1,12.24,60.69c2.57,56.88-15.28,106.85-52,150-37.09,43.59-84.6,70-140.33,82a256.59,256.59,0,0,1-51.55,5.67c-62.22.65-118.43-17-167.36-55.74-40.52-32.05-67.77-73-79.91-123.56A199.47,199.47,0,0,1,0,288.26Zm286.26-2.57V216.2c0-3.37,0-3.34,3.32-2.63a149.42,149.42,0,0,1,24.17,7.17c12.58,5,22.46,13.14,28.56,25.46,5.08,10.27,6.7,21.34,7.17,32.57.58,14,.76,28.07-2.11,41.91-4.08,19.75-15.58,33.58-34.23,41.17-16.75,6.81-34.44,9.2-52.37,9.95-17.38.74-34.69.1-51.83-3.27-12-2.34-23.65-5.47-34.05-12.19a51.62,51.62,0,0,1-17.83-18.94c-6-11.08-7.76-23.17-8.21-35.4s-.53-24.79,1.56-37.08c3-17.48,10.83-31.79,26.85-40.65a90,90,0,0,1,21.49-8.12c1.87-.47,2.47-1.24,2.39-3.21q-.45-11.62-.53-23.26c0-2.37-.47-3.42-3.09-2.62a38.65,38.65,0,0,1-5.17.82,206,206,0,0,0-47.23,12.79c-14.59,6-28.1,13.8-39.47,24.91C82,248.71,74.7,277.14,80.07,308.93c3.33,19.72,13.85,35.87,28.82,49.22,13.44,12,29,20.21,45.66,26.5,17.68,6.67,36.07,10.43,54.78,12.7,1.58.19,1.72.79,1.75,2.07a139.07,139.07,0,0,1-.63,16.33c-.9,8.76-4.77,12.47-13.73,13.41s-17.89,1.32-26.85,1.72c-3.84.16-6.54,1.84-8.09,5.23a14.36,14.36,0,0,0,.54,13.85c1.72,2.93,4.32,5.16,7.85,4.71,7.92-1,15.87-.33,23.8-.84,8.5-.54,17.06-.09,25.58-.3,18.92-.48,37.83-.27,56.75-.16,17.21.1,34.42.68,51.63,1.05,2.72.06,4.56-1.34,6.28-3.31,3.15-3.6,3-7.85,2.48-12-.41-3.65-4-7.44-6.57-7.66-4.93-.41-9.86-1-14.8-1.1A112.23,112.23,0,0,1,299.44,429c-7.14-1.22-10.11-2.81-11.9-10.11-1.59-6.52-1.53-13.3-1.3-20,0-1.1.52-1.33,1.52-1.45,3.64-.45,7.27-1,10.9-1.55,24.48-3.78,48-10.59,69.59-23,13.26-7.59,24.91-17,34.15-29.43,10.91-14.65,16.39-31.07,17.19-49.12a95.14,95.14,0,0,0-3-27.43c-5.32-21.11-17.47-37.63-34.8-50.42-12.22-9-25.92-15.34-40.26-20.15-17-5.72-34.65-8.79-52.46-10.69-2.44-.26-2.83-1-2.82-3.13.08-16.7-.09-33.41.51-50.11.2-5.33.23-10.68.62-16,.32-4.25-1.08-7.11-4.77-9.13-4.18-2.3-8.39-2.06-12.71-.59A416.09,416.09,0,0,1,208.76,123c-12,2.14-23.88,4.49-35.95,5.87-5.13.59-9.8,1.29-11.5,7.34a15.29,15.29,0,0,0,1.37,12.17c1.16,2.05,2.77,4.09,5.38,4.41,9.57,1.17,19.15,2.23,28.73,3.32,8.5,1,12.16,4.12,13.56,12a50.16,50.16,0,0,1,.68,7.14c.39,15.08.94,30.16,1,45.24.14,31.75.21,63.5-.9,95.25-.47,13.42,0,26.86,0,40.3a2.1,2.1,0,0,0,1.93,2.45,170.94,170.94,0,0,0,24.35,2.77c15.3.41,30.61.42,45.78-2.5,2.9-.55,3.13-1.55,3.13-3.84Q286.22,320.3,286.26,285.69Z"/><path class="cls-1" d="M449.83,510.7c-2.81,5.82-5.64,11.63-8.42,17.47-.54,1.14-1,2-2.58,2a2.83,2.83,0,0,1-2.9-2c-2.77-5.85-5.6-11.67-8.46-17.61-.82.6-.49,1.38-.49,2,0,6.3-.09,12.6,0,18.9,0,2-.91,2.11-2.37,2-1.28-.11-2.83.53-2.81-1.86.09-9.44.07-18.89,0-28.34,0-1.49.54-1.74,1.92-1.89,3.22-.35,5.14.53,6.5,3.82,2.36,5.78,5.37,11.29,8.41,17.51,2.82-5.83,5.37-11.11,7.93-16.38l.84-1.75a5.6,5.6,0,0,1,7.08-3.14c1.26.35.89,1.26.89,2,0,9.35-.05,18.71.06,28.06,0,2.28-1.3,1.94-2.69,2s-2.44,0-2.4-2c.11-6,0-12,0-18.06v-2.68Z"/><path class="cls-1" d="M402.14,519.81c0-3.79-.06-7.58,0-11.38,0-1.54-.43-2.19-2-2.07s-3.15,0-4.72,0c-2.76,0-3.57-1.22-2.87-4,.27-1.07,1-.93,1.68-.93,7.13,0,14.26,0,21.39,0,2.26,0,1.58,1.52,1.66,2.66s.14,2.45-1.76,2.31c-1.75-.12-3.54.14-5.28-.06-2.32-.26-2.74.73-2.7,2.82.11,7.22,0,14.43.08,21.65,0,2-.3,2.87-2.54,2.74-1.88-.11-3.14-.13-3-2.64C402.31,527.23,402.14,523.51,402.14,519.81Z"/><line class="cls-2" x1="696.88" y1="5.14" x2="539.46" y2="571.84"/></g></g></svg>