<svg xmlns="http://www.w3.org/2000/svg" viewBox="0 0 1814.51 603.43"><defs><style>.cls-1{fill:#fff;}.cls-2{fill:#faa41a;}.cls-3{fill:none;stroke:#b5b5b5;stroke-linecap:round;stroke-miterlimit:10;stroke-width:10.75px;}</style></defs><g id="Layer_2" data-name="Layer 2"><g id="Layer_1-2" data-name="Layer 1"><path class="cls-1" d="M1122.08,266.89q-7.78,15.66-15.59,31.3c-6.79,13.69-13.59,27.38-20.28,41.13a3,3,0,0,1-3.21,2c-5.14-.1-10.28-.11-15.42,0a2.73,2.73,0,0,1-2.94-1.9c-5.12-10.42-10.36-20.79-15.56-31.17-5-9.88-10-19.73-14.87-29.62-2-3.94-3.73-8-6.18-11.94v2.83c0,27.42,0,54.84.07,82.26,0,2.51-.71,3-3,2.92-7.27-.16-14.55-.12-21.82,0-1.82,0-2.22-.48-2.22-2.25q.08-63.94,0-127.9c0-1.89.47-2.44,2.4-2.42,9.7.1,19.4.07,29.09,0a2.63,2.63,0,0,1,2.81,1.75q11.76,23.57,23.72,47c5.4,10.62,10.87,21.2,16.34,31.85,1-.19,1.12-1.32,1.49-2.06q13.68-27.12,27.27-54.29,5.47-10.95,10.77-22c.78-1.61,1.58-2.36,3.58-2.33q14.12.24,28.22,0c2.5,0,3.23.5,3.22,3.13q-.15,52-.07,104.07c0,7.65,0,15.31,0,23,0,1.85-.39,2.47-2.37,2.44-7.37-.13-14.75-.15-22.11,0-2.18.05-2.69-.5-2.68-2.67.08-27.33,0-54.65,0-82v-3Z"/><path class="cls-1" d="M908.44,220c21,.3,39.65,7.18,54.21,23.28a63.79,63.79,0,0,1,15.89,33.29c2.46,15.15.53,29.55-6.55,43.11-9.68,18.53-25.21,29.72-45.27,34.93a79.18,79.18,0,0,1-24.45,2.2,70.92,70.92,0,0,1-32.77-10.22,62.35,62.35,0,0,1-14.3-11.41,68.07,68.07,0,0,1-18-54,65.38,65.38,0,0,1,15-36.2,67.31,67.31,0,0,1,28.19-20C889.27,221.51,898.55,220.22,908.44,220Zm.26,26.25c-2,.16-4.08.16-6.07.52a42.06,42.06,0,0,0-31.71,57.53c9.69,23.91,37.58,33.72,58.58,20.05,15.73-10.23,21.2-25.53,18.63-43.77A40.38,40.38,0,0,0,908.7,246.29Z"/><path class="cls-1" d="M852.82,409.29c17.57-.09,33.54,4.62,47.4,15.72a63.67,63.67,0,0,1,23.38,38.06c3.22,16,1.53,31.69-6.33,46.25-10.25,19-26.35,30.21-47.28,34.93a83.49,83.49,0,0,1-23.47,1.59,65.45,65.45,0,0,1-17.53-3.7,71.67,71.67,0,0,1-23.34-13.31c-9.2-7.79-15.38-17.38-19.52-28.52-3.4-9.19-3.65-18.67-3.37-28.3a60,60,0,0,1,6.43-24.86,66.07,66.07,0,0,1,11.53-16.37,69,69,0,0,1,25-16.67,78.55,78.55,0,0,1,16.81-4.21A67.41,67.41,0,0,1,852.82,409.29ZM894.17,477a40.9,40.9,0,0,0-.62-7.72,40,40,0,0,0-60.5-27.74c-15.11,9.28-22.44,27.19-18.64,45.54A41.14,41.14,0,0,0,863,518.67C881.12,514.72,894.17,497.53,894.17,477Z"/><path class="cls-1" d="M1814.51,354.66c-10.72,0-21.39,0-32,0-1.61,0-2.23-.65-3-2-4.46-8.23-9.1-16.37-13.64-24.57-1.78-3.21-3.48-6.46-5.17-9.72a2.52,2.52,0,0,0-2.61-1.57q-13.08.12-26.17,0c-1.79,0-2.27.41-2.25,2.22.09,11,0,22.09.1,33.13,0,2.06-.56,2.56-2.57,2.53q-12.66-.17-25.31,0c-1.87,0-2.39-.44-2.39-2.36q.09-63.79,0-127.59c0-2.29.71-2.63,2.77-2.62,19.29.07,38.6-.22,57.88.14,12.73.23,25,2.64,35.56,10.67,8.58,6.55,13.29,15.22,15,25.78a57.76,57.76,0,0,1-1.57,26.5,39.68,39.68,0,0,1-20.69,24.87c-1.59.81-1.48,1.24-.6,2.58q12.57,19.29,25,38.69A8.14,8.14,0,0,1,1814.51,354.66Zm-84.81-85.27c0,6.59.07,13.18,0,19.76,0,1.9.29,2.69,2.47,2.66,8.92-.13,17.84.06,26.76-.09,6-.11,11.83-1.22,16.62-5.12,7.94-6.45,8.67-15.15,6.66-24.28-1.79-8.15-8.26-13.42-17.53-14.61-10.8-1.39-21.68-.28-32.52-.67-2.15-.08-2.5.66-2.46,2.59C1729.78,256.22,1729.7,262.81,1729.7,269.39Z"/><path class="cls-1" d="M1571.2,288.37c0-21.12,0-42.24,0-63.36,0-2.25.52-2.9,2.86-2.89q47.85.12,95.7,0c2,0,2.67.39,2.62,2.51-.14,6.68-.15,13.37,0,20.05.05,2.18-.73,2.44-2.63,2.43-21.82-.06-43.63,0-65.45-.09-2.36,0-3.11.45-3,2.95.19,7.46.24,14.92,0,22.38-.1,3,.88,3.39,3.55,3.37,19-.12,38,0,57-.14,2.92,0,3.5.83,3.41,3.54-.21,6.19-.22,12.4,0,18.6.09,2.59-.83,2.91-3.1,2.9-19.3-.09-38.6,0-57.89-.11-2.47,0-3,.64-3,3q.24,11.76,0,23.54c0,2.19.55,2.72,2.72,2.71,22.5-.09,45,0,67.49-.11,2.39,0,3.11.56,3,3-.18,6.59-.14,13.18,0,19.76,0,1.83-.5,2.25-2.26,2.24q-49.32-.07-98.62,0c-2.26,0-2.42-.86-2.41-2.69Q1571.25,320.21,1571.2,288.37Z"/><path class="cls-1" d="M1137.44,477.56c0-21.13,0-42.25-.06-63.38,0-2.27.56-2.9,2.87-2.89q47.87.12,95.73,0c2.21,0,2.74.57,2.68,2.72-.15,6.4-.16,12.8,0,19.19.06,2.35-.44,3-2.94,3-21.72-.12-43.45,0-65.18-.13-2.42,0-3.06.56-3,3,.18,7.75.14,15.51,0,23.26,0,2,.49,2.55,2.53,2.54,19.4-.09,38.8,0,58.2-.1,2.32,0,3.19.45,3.11,3q-.29,9.45,0,18.9c.07,2.38-.51,3.07-3,3.06-19.3-.11-38.6,0-57.91-.13-2.46,0-3,.65-3,3,.16,7.94.13,15.89,0,23.84,0,2,.55,2.51,2.56,2.5,22.4-.07,44.81,0,67.22-.1,2.6,0,3.47.55,3.38,3.3-.22,6.49-.12,13,0,19.48,0,1.62-.38,2.13-2.07,2.13q-49.47-.07-98.94,0c-2.13,0-2.26-.88-2.26-2.56Q1137.47,509.4,1137.44,477.56Z"/><path class="cls-1" d="M1308.93,266.68c0-14,0-27.91-.06-41.87,0-2.2.58-2.73,2.74-2.69,8.14.13,16.29.15,24.44,0,2.39-.05,2.81.73,2.8,2.92q-.11,36.91,0,73.84c0,7.25,1,14.3,5.45,20.38,5.71,7.81,13.65,11,23.09,11.28,8.74.22,16.32-2.47,22.21-9a25.2,25.2,0,0,0,6.72-17.41c0-1.93.66-3.72.66-5.67-.08-24.52,0-49-.1-73.55,0-2.06.31-2.83,2.63-2.78,8.34.16,16.68.13,25,0,2,0,2.41.6,2.41,2.45-.05,26.07.22,52.14-.13,78.2-.22,15.58-5.3,29.45-17.3,40.17-7.23,6.46-15.82,10.17-25.16,12.25a75.05,75.05,0,0,1-22.82,1.63c-11.72-1-22.91-4.16-32.58-11.5a49.86,49.86,0,0,1-15.54-20.15c-3.33-7.52-4.5-15.44-4.47-23.61C1309,289.94,1308.93,278.31,1308.93,266.68Z"/><path class="cls-1" d="M716.72,545.48a90.55,90.55,0,0,1-37-7.66,95,95,0,0,1-18.64-11c-1.8-1.3-2.81-2.53-1.36-5.18,3.54-6.48,6.62-13.23,9.76-19.93.83-1.76,1.37-1.63,2.73-.5a84,84,0,0,0,28.89,15.9c8.55,2.68,17.19,4,26,1.54,4.1-1.16,7.7-3.53,9.24-7.68,2.08-5.58.08-11-5-14.39-5.4-3.64-11.68-5.24-17.79-7.12-11.3-3.47-23-5.84-33-12.73-7.37-5.1-12-11.92-13.42-20.95a40.25,40.25,0,0,1,.68-17.72,34.49,34.49,0,0,1,11.75-17.67c9.36-7.6,20.21-10.16,31.86-11.11,16-1.29,31.16,1.81,45.77,8.18a99.87,99.87,0,0,1,9.82,5.18c1.32.76,1.25,1.28.72,2.4-3.37,7.21-6.74,14.43-10,21.7-.79,1.78-1.75,1.7-3.07.87a90.77,90.77,0,0,0-30.84-11.92,38.67,38.67,0,0,0-16.21-.13c-5,1.13-8.69,4.87-8.92,9.91a11.17,11.17,0,0,0,6,10.62c6.41,3.72,13.46,5.78,20.47,7.94,8.15,2.51,16.37,4.89,24,8.75,9.22,4.67,16.14,11.39,18.74,21.86,4.93,19.91-3.88,38.19-23.81,46.13A68.63,68.63,0,0,1,716.72,545.48Z"/><path class="cls-1" d="M1180.89,288.09c0-21,0-42,0-63.07,0-2.2.44-2.92,2.81-2.91,18.81.11,37.63-.21,56.43.15,13,.25,25.34,2.94,35.77,11.5A37.5,37.5,0,0,1,1289,256.32c2.26,11.75,1.79,23.49-3.28,34.57-6.2,13.54-17.35,20.89-31.54,24.23-8.32,2-16.78,1.75-25.23,1.74-5.24,0-10.48.1-15.71-.05-2-.06-2.35.6-2.34,2.43.08,10.85,0,21.7.08,32.55,0,2.13-.32,3-2.76,2.93-8.24-.18-16.49-.15-24.73,0-2.18,0-2.69-.51-2.68-2.68C1180.93,330.72,1180.89,309.4,1180.89,288.09ZM1211,269.28c0,6.68.06,13.37,0,20.05,0,1.84.4,2.5,2.4,2.48,8-.12,16.09.06,24.13-.09,5.77-.12,11.37-1.22,16.19-4.69,6.85-4.93,9.74-14.62,7.35-24.35-2-8.22-8.23-13.66-17.61-15-10.31-1.42-20.71-.34-31.06-.66-1.86-.06-1.34,1.24-1.34,2.17C1211,255.92,1211,262.6,1211,269.28Z"/><path class="cls-1" d="M933.71,476.85c-.71-11.9,2.57-23.27,8.47-33.63a63.74,63.74,0,0,1,30.7-27.53,76.32,76.32,0,0,1,38.78-5.88c13.9,1.41,26.13,6.64,37.28,14.75,2.25,1.64,4.22,3.68,6.36,5.47,1.08.91,1.22,1.5.18,2.75-5.28,6.35-10.43,12.8-15.56,19.28-1,1.26-1.54.62-2.19-.19A46.95,46.95,0,0,0,1008.34,436c-13.68-1.6-24.68,3.2-33.73,13A38.23,38.23,0,0,0,965,469.63c-1.76,11.5.34,22.12,6.91,31.76,11.38,16.7,32.3,21.77,51.2,12.5A67.35,67.35,0,0,0,1038,503.71c1.21-1.06,1.51-.53,2.18.2,5.18,5.6,10.33,11.23,15.56,16.78,1.22,1.3.46,2-.42,2.84a81.08,81.08,0,0,1-23.12,15.84,71.81,71.81,0,0,1-36.83,6.47,67.4,67.4,0,0,1-58.31-45.65A62.57,62.57,0,0,1,933.71,476.85Z"/><path class="cls-1" d="M777.15,220c17.72.54,34.23,6.36,48.24,18.67,3.86,3.4,3.81,3.49.31,7.83-4.17,5.16-8.43,10.24-12.49,15.48-1.4,1.81-2.21,1.39-3.48,0a48.27,48.27,0,0,0-20.24-13.34c-23.66-8.14-47,7.13-51.45,29.86-3.07,15.67.8,29.24,12.3,40.35a37.71,37.71,0,0,0,22.18,10.31c12.17,1.52,22.36-3,31.92-9.71a31.1,31.1,0,0,0,6.16-4.93c1-1.11,1.67-.43,2.38.35,5.13,5.63,10.24,11.27,15.41,16.86.77.83,1,1.24.06,2.18-11.82,11.54-25.7,19.08-42.06,21.92a64.22,64.22,0,0,1-15.13,1.08,70.85,70.85,0,0,1-32-9.49,64.68,64.68,0,0,1-13.89-10.68,68.57,68.57,0,0,1-17.4-32.11,70,70,0,0,1-1.71-22.11,66.54,66.54,0,0,1,14.62-37.08c10.31-12.72,23.73-20.17,39.52-23.71C765.61,220.53,771,220.27,777.15,220Z"/><path class="cls-1" d="M1493.64,411.35c-3.88,7.34-7.58,14.4-11.35,21.41-5,9.38-10.12,18.72-15.18,28.07q-10,18.56-20.08,37.1a12.55,12.55,0,0,0-1.57,6.31c.09,12.31,0,24.62.09,36.92,0,1.94-.35,2.66-2.49,2.63q-12.64-.19-25.31,0c-2,0-2.37-.57-2.36-2.42.08-12.4,0-24.8.06-37.21a7.49,7.49,0,0,0-.92-3.79c-5.48-9.94-10.9-19.9-16.35-29.85-6.75-12.32-13.55-24.62-20.26-37-3.63-6.68-7.07-13.46-10.7-20.14-1-1.8-.43-2.09,1.32-2.08q13.24.06,26.48,0a2.47,2.47,0,0,1,2.46,1.51q15.57,27.42,31.23,54.79c.46.81.73,2.05,1.74,1.95.56-.05,1.1-1.19,1.51-1.92,4.44-7.92,8.89-15.85,13.27-23.8s8.51-15.66,12.81-23.46c1.44-2.62,3.1-5.12,4.5-7.76a2,2,0,0,1,2-1.29Z"/><path class="cls-1" d="M1497.86,222.17c17.65,0,35.3,0,52.94,0,2.16,0,2.77.49,2.72,2.69-.16,6.77-.14,13.56,0,20.34,0,2-.38,2.59-2.49,2.57-11.44-.12-22.88-.06-34.32-.06-3.88,0-3.88,0-3.88,3.74,0,33.23,0,66.46.08,99.68,0,3.14-.89,3.73-3.8,3.65-7.85-.21-15.71-.17-23.56,0-2.28.05-2.86-.57-2.85-2.84.08-33.72,0-67.43.12-101.14,0-2.53-.57-3.17-3.13-3.13-11.63.15-23.27,0-34.91.11-1.86,0-2.46-.43-2.42-2.38.12-6.87.12-13.76,0-20.63,0-2,.53-2.58,2.57-2.58C1462.57,222.21,1480.22,222.17,1497.86,222.17Z"/><path class="cls-1" d="M1308.55,411.35c17.56,0,35.11,0,52.67-.05,2,0,2.6.44,2.56,2.5-.13,6.87-.12,13.76,0,20.63,0,2-.56,2.37-2.41,2.35-11.83-.08-23.67,0-35.5-.1-2.38,0-2.83.72-2.82,2.92.06,33.73,0,67.45.1,101.17,0,2.35-.45,3.09-3,3-8-.18-15.9-.16-23.85,0-2.43.05-3.22-.39-3.21-3.07.11-33.53,0-67.06.15-100.58,0-2.82-.68-3.51-3.49-3.47-11.44.17-22.88,0-34.33.13-2.27,0-2.7-.65-2.66-2.75.14-6.68.16-13.38,0-20.06-.06-2.25.68-2.7,2.79-2.69C1273.25,411.38,1290.9,411.35,1308.55,411.35Z"/><path class="cls-1" d="M812.73,126c-.17-14,.11-28.07-.64-42.1a62.1,62.1,0,0,0-.68-6.52c-.39-2.51,1.07-2.56,2.91-2.56,12.89,0,25.79,0,38.68,0,6.69,0,13.38.08,20.07,0,2.06,0,2.62.83,2.27,2.57-1,5-.19,10.16-1,15.22-.3,2-.69,2.67-2.71,2.65-9.12-.09-18.23,0-27.34-.08-2,0-2.67.45-2.59,2.53.16,4.26.12,8.53,0,12.79,0,1.79.57,2.43,2.35,2.27,8.49-.72,17-.53,25.52-.64,2.18,0,3.17.37,3,2.82-.39,4.6-.49,9.23-.73,13.84-.11,2.3-1.1,3.28-3.63,3.22-8-.17-15.9,0-23.85-.1-1.82,0-2.5.35-2.44,2.34.16,4.83.14,9.68,0,14.52-.05,1.93.57,2.58,2.47,2.38,10.12-1,20.3-.31,30.42-1.17,2.33-.2,3.18.58,2.94,2.91-.57,5.64-1.14,11.28-1.17,17,0,2-1.38,2.24-3,2.24h-22.4c-11.33,0-22.66-.1-34,.48-.77,0-1.56-.08-2.32,0-2.39.33-3-.76-2.88-3C812.85,155.06,812.57,140.54,812.73,126Z"/><path class="cls-1" d="M892.92,126.77c-.07-14.33.22-28.67-.57-43-.12-2.19-.71-4.3-.69-6.53,0-2,.78-2.43,2.54-2.41,6.21.06,12.41,0,18.62,0,13.29,0,26.57,0,39.86,0,2.61,0,3.1.53,2.72,3.33-.64,4.64-.33,9.41-.7,14.12-.18,2.25-.65,3-3,3-9.11-.12-18.23,0-27.34-.09-1.87,0-2.47.43-2.41,2.36q.24,6.54,0,13.08c-.07,1.89.56,2.3,2.28,2.16,8.6-.7,17.22-.52,25.83-.67,2.41,0,3.1.76,2.8,3-.68,4.85-.4,9.77-1.08,14.63-.28,2.05-1.14,2.28-2.8,2.27-8.15-.05-16.29,0-24.44-.06-1.71,0-2.35.31-2.29,2.19q.22,7.26,0,14.53c-.06,2.06.59,2.74,2.62,2.53,10.21-1.07,20.5-.33,30.72-1.19,1.89-.16,2.7.55,2.47,2.49q-1,8.59-1.16,17.24c0,2.2-1.43,2.38-3.09,2.38-7.08,0-14.16,0-21.24,0-11.82,0-23.63-.09-35.44.48-4.8.23-4.91.21-4.69-4.54C893.07,154.27,892.85,140.52,892.92,126.77Z"/><path class="cls-1" d="M973.24,136.17c-.06-19.48.22-35.75-.62-52-.12-2.37-.78-4.7-.54-7.11.13-1.42.54-2.23,2.26-2.22q29.83.09,59.65,0c1.61,0,1.84.41,1.7,2.23-.38,4.89-.47,9.81-.68,14.72-.1,2.61-.63,3.53-3.4,3.48-8.92-.18-17.85,0-26.77-.12-2,0-2.65.41-2.57,2.5.18,4.36.14,8.72,0,13.08,0,1.69.5,2.16,2.11,2,8.4-.68,16.81-.62,25.23-.6,3.64,0,4,.08,3.46,3.75-.63,4.49-.31,9-1,13.51-.34,2.37-1.3,2.54-3.15,2.53-8-.05-15.91.05-23.86-.07-2,0-2.62.45-2.55,2.52.17,4.84.12,9.69,0,14.53,0,1.83.59,2.38,2.35,2.2,10.21-1,20.49-.32,30.71-1.18,2.23-.18,3,.61,2.69,2.82a112.51,112.51,0,0,0-1.06,15.77c0,2.83-1.16,3.57-3.82,3.56-15.13-.06-30.25,0-45.38.07q-6.52,0-13.05.4c-1.95.11-2.43-.55-2.37-2.45C973.1,157.75,973.35,145.36,973.24,136.17Z"/><path class="cls-1" d="M1106.5,477.62c0,21.11,0,42.22,0,63.33,0,2.25-.51,2.88-2.81,2.84-8.33-.15-16.67-.11-25,0-1.86,0-2.46-.41-2.46-2.38q.09-63.76,0-127.53c0-2,.55-2.6,2.58-2.57,8.33.11,16.67.13,25,0,2.21,0,2.7.55,2.69,2.71C1106.46,435.21,1106.5,456.42,1106.5,477.62Z"/><path class="cls-1" d="M791,123.54c0,15.39.5,30.78,1,46.16,0,1.65-.27,2.43-2.2,2.41-9-.06-18-.29-27,.49-2.15.19-2.06-.91-2-2.35.14-14.71.14-29.44.43-44.15.24-12.78.16-25.55-.39-38.32-.16-3.53-.57-7-.46-10.61.06-1.86.7-2.26,2.39-2.24,8.72.11,17.45.09,26.15-.5,2.46-.17,3,.74,2.86,2.95C791,90.92,791,104.47,791,118Z"/><path class="cls-2" d="M0,301.47C.52,247.3,18.38,199.38,53.11,158c39.17-46.69,89.45-75,148.81-87.75a275.34,275.34,0,0,1,52.48-5.86c45.17-.87,88.26,8.06,128.65,28.28,58.12,29.09,100.55,72.95,123.53,134.4a207,207,0,0,1,12.8,63.48c2.69,59.48-16,111.74-54.35,156.84-38.79,45.59-88.47,73.21-146.76,85.8a268.22,268.22,0,0,1-53.92,5.93c-65.07.68-123.85-17.81-175-58.29C47,447.29,18.45,404.42,5.75,351.58A208.53,208.53,0,0,1,0,301.47Zm299.38-2.68V226.11c0-3.53,0-3.49,3.48-2.74a154.36,154.36,0,0,1,25.27,7.49c13.16,5.27,23.5,13.74,29.88,26.63,5.31,10.73,7,22.31,7.49,34.06.61,14.65.79,29.35-2.2,43.83C359,356,347,370.5,327.49,378.44c-17.51,7.12-36,9.62-54.76,10.41-18.18.77-36.29.09-54.21-3.42C206,383,193.78,379.7,182.91,372.68a54,54,0,0,1-18.65-19.81c-6.29-11.59-8.11-24.23-8.58-37s-.56-25.93,1.62-38.78c3.11-18.28,11.33-33.25,28.08-42.52a94.09,94.09,0,0,1,22.48-8.49c2-.5,2.58-1.3,2.5-3.35q-.48-12.17-.56-24.33c0-2.48-.49-3.58-3.23-2.75a38.6,38.6,0,0,1-5.41.86,215.19,215.19,0,0,0-49.39,13.38c-15.26,6.31-29.38,14.43-41.27,26-24.76,24.19-32.38,53.93-26.76,87.17,3.49,20.63,14.49,37.52,30.14,51.48,14.06,12.54,30.32,21.14,47.76,27.72,18.49,7,37.72,10.9,57.29,13.28,1.65.2,1.8.82,1.82,2.16a143.21,143.21,0,0,1-.66,17.08c-.93,9.16-5,13-14.36,14s-18.7,1.38-28.07,1.79c-4,.17-6.84,1.92-8.47,5.47a15,15,0,0,0,.57,14.48c1.79,3.07,4.52,5.4,8.21,4.93,8.29-1.06,16.6-.34,24.89-.87,8.89-.57,17.84-.1,26.76-.32,19.78-.5,39.56-.28,59.34-.17,18,.11,36,.71,54,1.1,2.84.06,4.76-1.4,6.57-3.46,3.28-3.76,3.09-8.21,2.59-12.59-.44-3.82-4.15-7.78-6.87-8-5.16-.44-10.32-1-15.48-1.16a115.07,115.07,0,0,1-16.61-1.34c-7.47-1.26-10.58-2.94-12.44-10.56-1.67-6.83-1.61-13.91-1.36-20.94,0-1.15.54-1.39,1.59-1.52,3.8-.47,7.6-1,11.39-1.62,25.6-4,50.18-11.08,72.79-24,13.86-7.94,26-17.81,35.7-30.78,11.42-15.33,17.15-32.49,18-51.37a99.23,99.23,0,0,0-3.17-28.69c-5.56-22.08-18.26-39.36-36.39-52.74-12.78-9.43-27.11-16-42.1-21.07-17.8-6-36.24-9.19-54.87-11.18-2.55-.27-3-1.06-3-3.27.09-17.47-.09-34.94.54-52.4.2-5.59.23-11.18.65-16.74.32-4.45-1.13-7.44-5-9.55-4.38-2.41-8.78-2.16-13.3-.61a435.65,435.65,0,0,1-63.91,17c-12.51,2.24-25,4.7-37.6,6.14-5.36.62-10.25,1.34-12,7.67a16,16,0,0,0,1.44,12.73c1.21,2.15,2.9,4.28,5.62,4.61,10,1.23,20,2.33,30.05,3.47,8.9,1,12.72,4.32,14.18,12.52a49.06,49.06,0,0,1,.71,7.46c.41,15.77,1,31.55,1.06,47.32.15,33.21.22,66.41-.94,99.61-.5,14,0,28.1,0,42.15a2.21,2.21,0,0,0,2,2.56,177.85,177.85,0,0,0,25.46,2.9c16,.43,32,.44,47.88-2.61,3-.58,3.27-1.63,3.27-4Q299.34,335,299.38,298.79Z"/><path class="cls-2" d="M470.45,534.11c-2.94,6.09-5.9,12.17-8.8,18.27-.57,1.2-1.09,2.1-2.7,2.13s-2.4-.74-3-2.09c-2.9-6.12-5.86-12.2-8.85-18.41-.85.63-.5,1.44-.51,2.09,0,6.59-.09,13.18,0,19.76,0,2-.94,2.22-2.48,2.09-1.33-.11-3,.55-2.93-2,.09-9.88.07-19.76,0-29.64,0-1.56.57-1.82,2-2,3.37-.37,5.38.55,6.79,4,2.48,6,5.63,11.81,8.79,18.31l8.3-17.13c.3-.61.59-1.22.89-1.82,1.5-3.08,4.13-4.19,7.4-3.29,1.32.36.92,1.31.93,2.07,0,9.79-.05,19.57.06,29.36,0,2.38-1.36,2-2.81,2.08s-2.56,0-2.52-2.09c.12-6.29.05-12.59,0-18.89v-2.79Z"/><path class="cls-2" d="M420.57,543.64c0-4-.06-7.93,0-11.9,0-1.61-.45-2.29-2.13-2.17s-3.29,0-4.94,0c-2.88,0-3.73-1.27-3-4.15.28-1.12,1-1,1.76-1,7.46,0,14.92,0,22.37,0,2.37,0,1.65,1.58,1.74,2.78s.14,2.56-1.85,2.42c-1.83-.13-3.69.14-5.51-.07-2.43-.28-2.87.77-2.83,3,.12,7.55,0,15.1.09,22.64,0,2-.32,3-2.66,2.87-2-.11-3.29-.13-3.13-2.76C420.75,551.39,420.57,547.51,420.57,543.64Z"/><line class="cls-3" x1="695.12" y1="5.37" x2="530.48" y2="598.06"/></g></g></svg>